<svg xmlns="http://www.w3.org/2000/svg" width="20" height="12" viewBox="0 0 20 12">
    <g fill="none" fill-rule="evenodd">
        <g fill="#16B1FF" fill-rule="nonzero">
            <g>
                <g>
                    <g>
                        <path d="M19 0h-5c-.552 0-1 .448-1 1s.448 1 1 1h2.586L11 7.586 7.707 4.293C7.52 4.105 7.265 4 7 4c-.265 0-.52.105-.707.293l-6 6c-.255.252-.356.622-.264.968.092.347.363.618.71.71.346.092.716-.009.968-.264L7 6.414l3.293 3.293c.187.188.442.293.707.293.265 0 .52-.105.707-.293L18 3.414V6c0 .552.448 1 1 1s1-.448 1-1V1c0-.265-.105-.52-.293-.707C19.52.105 19.265 0 19 0z" transform="translate(-103 -414) translate(72 70) translate(22 328) translate(9 16)"/>
                    </g>
                </g>
            </g>
        </g>
    </g>
</svg>
