<svg xmlns="http://www.w3.org/2000/svg" width="20" height="15" viewBox="0 0 20 15">
    <g fill="none" fill-rule="evenodd">
        <g fill-rule="nonzero">
            <g>
                <g>
                    <g transform="translate(-103 -282) translate(72 70) translate(22 198) translate(9 14)">
                        <circle cx="14.441" cy="9.395" r="2.211" fill="#FFB400"/>
                        <path fill="#FFEAB8" d="M12.23 9.395c0-.557.213-1.06.553-1.448-.406-.464-.994-.763-1.658-.763-1.221 0-2.21.99-2.21 2.21 0 1.222.989 2.211 2.21 2.211.664 0 1.252-.299 1.658-.762-.34-.389-.553-.891-.553-1.448z"/>
                        <path fill="#FFCF5C" d="M17.756.553H2.283c-1.221 0-2.21.99-2.21 2.21v9.948c0 1.22.989 2.21 2.21 2.21h15.473c1.221 0 2.21-.99 2.21-2.21V2.763c0-1.22-.989-2.21-2.21-2.21zM14.44 11.605c-.664 0-1.252-.299-1.657-.762-.406.463-.994.762-1.658.762-1.221 0-2.21-.99-2.21-2.21 0-1.221.989-2.21 2.21-2.21.664 0 1.252.298 1.658.762.405-.464.993-.763 1.657-.763 1.221 0 2.211.99 2.211 2.21 0 1.222-.99 2.211-2.21 2.211z"/>
                    </g>
                </g>
            </g>
        </g>
    </g>
</svg>
