<svg xmlns="http://www.w3.org/2000/svg" width="20" height="15" viewBox="0 0 20 15">
    <g fill="none" fill-rule="evenodd">
        <g fill-rule="nonzero">
            <g>
                <g>
                    <g>
                        <path fill="#D0F0B8" d="M0 4H20V6H0z" transform="translate(-103 -216) translate(72 70) translate(22 133) translate(9 13)"/>
                        <path fill="#A7E37A" d="M17 0H3C1.345.005.005 1.345 0 3v1h20V3c-.005-1.655-1.345-2.995-3-3zM0 12c.005 1.655 1.345 2.995 3 3h14c1.655-.005 2.995-1.345 3-3V6H0v6z" transform="translate(-103 -216) translate(72 70) translate(22 133) translate(9 13)"/>
                        <path fill="#56CA00" d="M8 10H5c-.552 0-1-.448-1-1s.448-1 1-1h3c.552 0 1 .448 1 1s-.448 1-1 1z" transform="translate(-103 -216) translate(72 70) translate(22 133) translate(9 13)"/>
                    </g>
                </g>
            </g>
        </g>
    </g>
</svg>
