<svg xmlns="http://www.w3.org/2000/svg" width="20" height="22" viewBox="0 0 20 22">
    <g fill="none" fill-rule="evenodd">
        <g fill-rule="nonzero">
            <g>
                <g>
                    <g>
                        <path fill="#FFA2A5" d="M6.882 18.94c-.077.486-.496.843-.988.843H2.062c-.846.002-1.534-.683-1.536-1.53 0-.085.007-.17.02-.255l2.59-16.406C3.285.676 4.074.002 5 0h6.214c2.56 0 4.408.62 5.492 1.843 1.047 1.206 1.449 2.842 1.08 4.395-.021.135-.043.27-.075.418-.823 4.218-3.655 6.457-8.186 6.457H7.807l-.925 5.827z" transform="translate(-103 -149) translate(72 70) translate(22 68) translate(9 11)"/>
                        <path fill="#FF4C51" d="M18.437 6.104c-.167-.185-.35-.355-.545-.508-.022.215-.055.43-.106.642-.021.135-.043.27-.075.418-.823 4.218-3.655 6.457-8.186 6.457H7.807l-.925 5.827c-.077.486-.496.843-.988.843H4.727l-.082.52c-.012.076-.019.153-.019.23 0 .81.657 1.467 1.467 1.467h3.234c.866.007 1.608-.616 1.751-1.47l.64-4.031.012-.055h.298c4.033 0 6.551-1.993 7.286-5.762.454-1.579.128-3.279-.877-4.578z" transform="translate(-103 -149) translate(72 70) translate(22 68) translate(9 11)"/>
                    </g>
                </g>
            </g>
        </g>
    </g>
</svg>
