<svg width="22" height="21" viewBox="0 0 22 21" fill="none" xmlns="http://www.w3.org/2000/svg">
<g id="heart-medical">
<path id="Path" d="M10.9999 20.75C10.1249 20.7515 9.28532 20.3937 8.6666 19.7555L2.02018 12.9C-0.53278 10.2657 -0.684919 6.04663 1.67126 3.22397C4.02744 0.401307 8.09499 -0.070259 10.9999 2.14247C13.9048 -0.070474 17.9725 0.401024 20.3288 3.22379C22.685 6.04656 22.5328 10.2658 19.9796 12.9001L13.3331 19.755C12.7145 20.3934 11.8749 20.7514 10.9999 20.75Z" fill="#9155FD"/>
<path id="Path_2" d="M13.6667 11.75H8.33333C7.59695 11.75 7 11.3023 7 10.75C7 10.1977 7.59695 9.75 8.33333 9.75H13.6667C14.403 9.75 15 10.1977 15 10.75C15 11.3023 14.403 11.75 13.6667 11.75Z" fill="#B992FE"/>
<path id="Path_3" d="M11 14.75C10.7348 14.7501 10.4804 14.6096 10.2928 14.3596C10.1053 14.1095 9.99993 13.7703 10 13.4167V8.08333C10 7.34695 10.4477 6.75 11 6.75C11.5523 6.75 12 7.34695 12 8.08333V13.4167C12.0001 13.7703 11.8947 14.1095 11.7072 14.3596C11.5196 14.6096 11.2652 14.7501 11 14.75Z" fill="#B992FE"/>
</g>
</svg>
