<svg width="1em" height="1em" viewBox="0 0 58 58" fill="none" xmlns="http://www.w3.org/2000/svg">
<path opacity="0.2" d="M17.8304 37.8361C15.6726 36.1583 13.925 34.0114 12.7199 31.5581C11.5148 29.1047 10.8839 26.4093 10.8749 23.676C10.8296 13.8432 18.7367 5.66427 28.5695 5.43771C32.375 5.3475 36.1123 6.4577 39.2514 8.61087C42.3904 10.764 44.7719 13.8509 46.0581 17.4335C47.3442 21.0162 47.4698 24.9129 46.4169 28.571C45.364 32.229 43.1861 35.4627 40.1921 37.8135C39.5308 38.3247 38.995 38.9804 38.6259 39.7304C38.2568 40.4804 38.0641 41.3049 38.0624 42.1408V43.5002C38.0624 43.9809 37.8715 44.4419 37.5316 44.7818C37.1917 45.1218 36.7307 45.3127 36.2499 45.3127H21.7499C21.2692 45.3127 20.8082 45.1218 20.4683 44.7818C20.1284 44.4419 19.9374 43.9809 19.9374 43.5002V42.1408C19.9318 41.3112 19.7394 40.4935 19.3747 39.7483C19.0099 39.0031 18.4821 38.3496 17.8304 37.8361V37.8361Z" fill="#8C57FF"/>
<path fill-rule="evenodd" clip-rule="evenodd" d="M38.6857 9.43503C35.7198 7.40066 32.1887 6.35171 28.5932 6.43694L28.5925 6.43696C28.3515 6.44251 28.1116 6.45313 27.8731 6.46871L28.5464 4.43749C32.5617 4.34244 36.5049 5.51389 39.817 7.78573C43.1293 10.0577 45.6422 13.3148 46.9993 17.0952C48.3564 20.8755 48.4889 24.9872 47.3779 28.8471C46.2669 32.707 43.9688 36.1191 40.8097 38.5995L40.8037 38.6042L40.8037 38.6042C40.263 39.0222 39.8249 39.5583 39.5232 40.1715C39.2215 40.7844 39.0639 41.4582 39.0625 42.1413V42.1423V43.4997C39.0625 44.2456 38.7661 44.961 38.2387 45.4885C37.7112 46.0159 36.9959 46.3122 36.25 46.3122H21.75C21.004 46.3122 20.2887 46.0159 19.7612 45.4885C19.2338 44.961 18.9375 44.2456 18.9375 43.4997V42.1439C18.9323 41.4654 18.7748 40.7968 18.4765 40.1874C18.1781 39.5779 17.7466 39.0432 17.2138 38.6229L17.8866 36.5934C18.069 36.7481 18.255 36.8991 18.4442 37.0462L17.8304 37.8357L18.4492 37.0501C19.2189 37.6564 19.8421 38.4282 20.2729 39.3082C20.7036 40.1881 20.9307 41.1538 20.9374 42.1335L20.9375 42.1403L20.9375 43.4997C20.9375 43.7152 21.0231 43.9219 21.1754 44.0742C21.3278 44.2266 21.5345 44.3122 21.75 44.3122H36.25C36.4654 44.3122 36.6721 44.2266 36.8245 44.0742C36.9768 43.9219 37.0625 43.7152 37.0625 43.4997V42.1403V42.1384C37.0644 41.15 37.2923 40.1752 37.7287 39.2884C38.1646 38.4027 38.7969 37.6283 39.5775 37.0241C42.4048 34.8033 44.4614 31.7489 45.4559 28.2939C46.4507 24.8377 46.3321 21.156 45.1169 17.7709C43.9017 14.3859 41.6516 11.4694 38.6857 9.43503ZM17.8865 36.5933L17.8866 36.5934L27.8731 6.46871L27.8724 6.46876L28.5458 4.4375C18.1651 4.67705 9.8275 13.3055 9.87496 23.6795C9.88451 26.5643 10.5504 29.4091 11.8223 31.9985C13.0938 34.587 14.9375 36.8523 17.2138 38.6229L17.8865 36.5933ZM17.8865 36.5933C16.1041 35.0824 14.6499 33.2187 13.6175 31.1167C12.4793 28.7996 11.8834 26.2538 11.8749 23.6722L11.8749 23.6709C11.8332 14.6212 18.9246 7.05364 27.8724 6.46876L17.8865 36.5933ZM18.9376 52.5623C18.9376 52.01 19.3853 51.5623 19.9376 51.5623H38.0626C38.6149 51.5623 39.0626 52.01 39.0626 52.5623C39.0626 53.1145 38.6149 53.5623 38.0626 53.5623H19.9376C19.3853 53.5623 18.9376 53.1145 18.9376 52.5623ZM31.0024 11.8826C30.4579 11.7903 29.9416 12.1569 29.8493 12.7014C29.757 13.2459 30.1236 13.7621 30.6681 13.8544C32.6793 14.1954 34.535 15.1521 35.9792 16.5927C37.4235 18.0332 38.385 19.8865 38.731 21.8968C38.8247 22.441 39.3419 22.8063 39.8862 22.7126C40.4304 22.6189 40.7957 22.1017 40.702 21.5575C40.2857 19.1391 39.129 16.9096 37.3916 15.1766C35.6543 13.4437 33.4218 12.2927 31.0024 11.8826Z" fill="#8C57FF"/>
</svg>
