<svg width="20" height="20" viewBox="0 0 20 20" fill="none" xmlns="http://www.w3.org/2000/svg">
<g id="comment-alt-lines">
<path id="Path" d="M19 19.25C18.7348 19.25 18.4804 19.1499 18.293 18.9716L14.5859 15.45H3C1.3439 15.4483 0.00180771 14.1733 0 12.6V3.1C0.00180771 1.5267 1.3439 0.251717 3 0.25H17C18.6561 0.251717 19.9982 1.5267 20 3.1V18.3C20 18.8247 19.5523 19.25 19 19.25Z" fill="#86D6FF"/>
<path id="Shape" fill-rule="evenodd" clip-rule="evenodd" d="M15 7.25H5C4.44772 7.25 4 6.80228 4 6.25C4 5.69772 4.44772 5.25 5 5.25H15C15.5523 5.25 16 5.69772 16 6.25C16 6.80228 15.5523 7.25 15 7.25ZM11 11.25H5C4.44772 11.25 4 10.8023 4 10.25C4 9.69772 4.44772 9.25 5 9.25H11C11.5523 9.25 12 9.69772 12 10.25C12 10.8023 11.5523 11.25 11 11.25Z" fill="#16B1FF"/>
</g>
</svg>
