<svg width="20" height="22" viewBox="0 0 20 22" fill="none" xmlns="http://www.w3.org/2000/svg">
<g id="graph-bar">
<path id="Path" d="M4.16667 21.75H0.833333C0.612302 21.75 0.400307 21.6447 0.244014 21.4572C0.0877215 21.2696 -5.74342e-05 21.0152 2.81945e-08 20.75V12.75C-5.74342e-05 12.4848 0.0877215 12.2304 0.244014 12.0428C0.400307 11.8553 0.612302 11.75 0.833333 11.75H4.16667C4.3877 11.75 4.59969 11.8553 4.75599 12.0428C4.91228 12.2304 5.00006 12.4848 5 12.75V20.75C5.00006 21.0152 4.91228 21.2696 4.75599 21.4572C4.59969 21.6447 4.3877 21.75 4.16667 21.75Z" fill="#FFD87A"/>
<path id="Path_2" d="M12.1667 21.75H8.83333C8.6123 21.75 8.40031 21.6495 8.24401 21.4705C8.08772 21.2915 7.99994 21.0486 8 20.7955V1.70455C7.99994 1.45136 8.08772 1.20853 8.24401 1.02951C8.40031 0.850481 8.6123 0.75 8.83333 0.75H12.1667C12.3877 0.75 12.5997 0.850481 12.756 1.02951C12.9123 1.20853 13.0001 1.45136 13 1.70455V20.7955C13.0001 21.0486 12.9123 21.2915 12.756 21.4705C12.5997 21.6495 12.3877 21.75 12.1667 21.75Z" fill="#FFB400"/>
<path id="Path_3" d="M19.1667 21.75H15.8333C15.6123 21.75 15.4003 21.6523 15.244 21.4781C15.0877 21.3039 14.9999 21.0677 15 20.8214V9.67857C14.9999 9.43228 15.0877 9.19606 15.244 9.0219C15.4003 8.84775 15.6123 8.75 15.8333 8.75H19.1667C19.3877 8.75 19.5997 8.84775 19.756 9.0219C19.9123 9.19606 20.0001 9.43228 20 9.67857V20.8214C20.0001 21.0677 19.9123 21.3039 19.756 21.4781C19.5997 21.6523 19.3877 21.75 19.1667 21.75Z" fill="#FFCF5C"/>
</g>
</svg>
