<svg width="20" height="21" viewBox="0 0 20 21" fill="none" xmlns="http://www.w3.org/2000/svg">
<g id="user">
<path id="Path" d="M10 12.25C6.68629 12.25 4 9.56371 4 6.25C4 2.93629 6.68629 0.25 10 0.25C13.3137 0.25 16 2.93629 16 6.25C15.9964 9.56221 13.3122 12.2464 10 12.25Z" fill="#A7E37A"/>
<path id="Path_2" d="M13.7227 11.2503C12.6968 12.0276 11.4063 12.4957 10 12.4972C8.59178 12.4972 7.2993 12.0288 6.27251 11.25C2.93994 12.5348 0.430195 15.4988 0.00598138 19.1758C-0.0540658 19.7079 0.344787 20.1861 0.897022 20.2443L18.9929 20.25C19.0297 20.25 19.0664 20.2481 19.103 20.2443C19.6552 20.1861 20.0541 19.7079 19.994 19.1758C19.5761 15.5541 17.1053 12.5492 13.7227 11.2503Z" fill="#56CA00"/>
</g>
</svg>
