<svg width="58" height="58" viewBox="0 0 58 58" fill="none" xmlns="http://www.w3.org/2000/svg">
<path opacity="0.2" d="M22.8829 41.2568L20.1415 46.6943C19.9651 47.0652 19.6651 47.363 19.293 47.5366C18.9209 47.7103 18.4999 47.7489 18.1024 47.6459C12.5517 46.2865 7.74854 43.9303 4.25947 40.8943C3.99643 40.6623 3.80541 40.3597 3.70904 40.0224C3.61267 39.6851 3.61499 39.3272 3.71572 38.9912L11.3962 13.3443C11.4709 13.0819 11.6062 12.8406 11.7912 12.6399C11.9761 12.4393 12.2055 12.2848 12.461 12.1889C14.631 11.2986 16.875 10.6012 19.1673 10.1045C19.6078 10.008 20.0684 10.0771 20.4612 10.2986C20.854 10.5201 21.1515 10.8784 21.297 11.3053L23.0868 16.7201C27.0103 16.1763 30.9899 16.1763 34.9134 16.7201V16.7201L36.7032 11.3053C36.8487 10.8784 37.1462 10.5201 37.539 10.2986C37.9318 10.0771 38.3924 10.008 38.8329 10.1045C41.1252 10.6012 43.3692 11.2986 45.5392 12.1889C45.7947 12.2848 46.0241 12.4393 46.209 12.6399C46.394 12.8406 46.5293 13.0819 46.604 13.3443L54.2845 38.9912C54.3852 39.3272 54.3875 39.6851 54.2912 40.0224C54.1948 40.3597 54.0038 40.6623 53.7407 40.8943C50.2517 43.9303 45.4485 46.2865 39.8978 47.6459C39.5003 47.7489 39.0793 47.7103 38.7072 47.5366C38.3351 47.363 38.0351 47.0652 37.8587 46.6943L35.1173 41.2568C33.0907 41.5419 31.0467 41.6857 29.0001 41.6873C26.9535 41.6857 24.9095 41.5419 22.8829 41.2568V41.2568Z" fill="#8C57FF"/>
<path fill-rule="evenodd" clip-rule="evenodd" d="M24.4688 32.625C24.4688 34.1265 23.2515 35.3438 21.75 35.3438C20.2485 35.3438 19.0312 34.1265 19.0312 32.625C19.0312 31.1235 20.2485 29.9062 21.75 29.9062C23.2515 29.9062 24.4688 31.1235 24.4688 32.625ZM38.9688 32.625C38.9688 34.1265 37.7515 35.3438 36.25 35.3438C34.7485 35.3438 33.5312 34.1265 33.5312 32.625C33.5312 31.1235 34.7485 29.9062 36.25 29.9062C37.7515 29.9062 38.9688 31.1235 38.9688 32.625Z" fill="#8C57FF"/>
<path d="M16.8563 18.1248C20.7855 16.8934 24.8826 16.2819 29.0001 16.3123C33.1176 16.2819 37.2147 16.8934 41.1439 18.1248M41.1439 39.8748C37.2147 41.1063 33.1176 41.7178 29.0001 41.6873C24.8826 41.7178 20.7855 41.1063 16.8563 39.8748M35.1173 41.2568L37.8587 46.6943C38.0351 47.0652 38.3351 47.363 38.7072 47.5366C39.0793 47.7103 39.5003 47.7489 39.8978 47.6459C45.4485 46.2865 50.2517 43.9303 53.7407 40.8943C54.0038 40.6623 54.1948 40.3597 54.2912 40.0224C54.3875 39.6851 54.3852 39.3272 54.2845 38.9912L46.604 13.3443C46.5293 13.0819 46.394 12.8406 46.209 12.6399C46.0241 12.4393 45.7947 12.2848 45.5392 12.1889C43.3692 11.2986 41.1252 10.6012 38.8329 10.1045C38.3924 10.008 37.9318 10.0771 37.539 10.2986C37.1462 10.5201 36.8487 10.8784 36.7032 11.3053L34.9134 16.7201M22.8829 41.2568L20.1415 46.6943C19.9651 47.0652 19.6651 47.363 19.293 47.5366C18.9209 47.7103 18.4999 47.7489 18.1024 47.6459C12.5517 46.2865 7.74854 43.9303 4.25947 40.8943C3.99643 40.6623 3.80541 40.3597 3.70904 40.0224C3.61267 39.6851 3.61499 39.3272 3.71572 38.9912L11.3962 13.3443C11.4709 13.0819 11.6062 12.8406 11.7912 12.6399C11.9761 12.4393 12.2055 12.2848 12.461 12.1889C14.631 11.2986 16.875 10.6012 19.1673 10.1045C19.6078 10.008 20.0684 10.0771 20.4612 10.2986C20.854 10.5201 21.1515 10.8784 21.297 11.3053L23.0868 16.7201" stroke="#8C57FF" stroke-width="2" stroke-linecap="round" stroke-linejoin="round"/>
</svg>
