<svg width="1em" height="1em" viewBox="0 0 39 38" fill="none" xmlns="http://www.w3.org/2000/svg">
<g id="Check">
<path id="Vector" opacity="0.2" d="M8.42319 29.9102C7.05756 28.5445 7.96303 25.6797 7.26537 24.0023C6.56772 22.325 3.89584 20.8555 3.89584 19C3.89584 17.1445 6.53803 15.7344 7.26537 13.9977C7.99272 12.2609 7.05756 9.45547 8.42319 8.08984C9.78881 6.72422 12.6537 7.62969 14.331 6.93203C16.0083 6.23438 17.4779 3.5625 19.3333 3.5625C21.1888 3.5625 22.599 6.20469 24.3357 6.93203C26.0724 7.65938 28.8779 6.72422 30.2435 8.08984C31.6091 9.45547 30.7037 12.3203 31.4013 13.9977C32.099 15.675 34.7708 17.1445 34.7708 19C34.7708 20.8555 32.1287 22.2656 31.4013 24.0023C30.674 25.7391 31.6091 28.5445 30.2435 29.9102C28.8779 31.2758 26.013 30.3703 24.3357 31.068C22.6583 31.7656 21.1888 34.4375 19.3333 34.4375C17.4779 34.4375 16.0677 31.7953 14.331 31.068C12.5943 30.3406 9.78881 31.2758 8.42319 29.9102Z" fill="currentColor"/>
<path id="Vector_2" d="M25.8646 15.4375L17.1513 23.75L12.8021 19.5937M8.42319 29.9102C7.05756 28.5445 7.96303 25.6797 7.26537 24.0023C6.56772 22.325 3.89584 20.8555 3.89584 19C3.89584 17.1445 6.53803 15.7344 7.26537 13.9977C7.99272 12.2609 7.05756 9.45547 8.42319 8.08984C9.78881 6.72422 12.6537 7.62969 14.331 6.93203C16.0083 6.23437 17.4779 3.5625 19.3333 3.5625C21.1888 3.5625 22.599 6.20469 24.3357 6.93203C26.0724 7.65937 28.8779 6.72422 30.2435 8.08984C31.6091 9.45547 30.7037 12.3203 31.4013 13.9977C32.099 15.675 34.7708 17.1445 34.7708 19C34.7708 20.8555 32.1287 22.2656 31.4013 24.0023C30.674 25.7391 31.6091 28.5445 30.2435 29.9102C28.8779 31.2758 26.013 30.3703 24.3357 31.068C22.6583 31.7656 21.1888 34.4375 19.3333 34.4375C17.4779 34.4375 16.0677 31.7953 14.331 31.068C12.5943 30.3406 9.78881 31.2758 8.42319 29.9102Z" stroke="#FFB400" stroke-width="2" stroke-linecap="round" stroke-linejoin="round"/>
</g>
</svg>
