<svg xmlns="http://www.w3.org/2000/svg" width="58" height="58" viewBox="0 0 58 58" fill="none">
  <path opacity="0.2" d="M22.8832 41.2571L20.1418 46.6946C19.9654 47.0654 19.6653 47.3632 19.2932 47.5368C18.9211 47.7105 18.5002 47.7491 18.1027 47.6462C12.5519 46.2868 7.74878 43.9305 4.25972 40.8946C3.99667 40.6625 3.80565 40.3599 3.70928 40.0226C3.61291 39.6853 3.61523 39.3275 3.71597 38.9915L11.3964 13.3446C11.4712 13.0821 11.6065 12.8409 11.7914 12.6402C11.9763 12.4395 12.2058 12.285 12.4613 12.1891C14.6312 11.2989 16.8753 10.6014 19.1675 10.1047C19.608 10.0083 20.0686 10.0774 20.4615 10.2988C20.8543 10.5203 21.1518 10.8787 21.2972 11.3055L23.0871 16.7204C27.0105 16.1766 30.9902 16.1766 34.9136 16.7204L36.7035 11.3055C36.8489 10.8787 37.1464 10.5203 37.5392 10.2988C37.932 10.0774 38.3927 10.0083 38.8332 10.1047C41.1254 10.6014 43.3695 11.2989 45.5394 12.1891C45.7949 12.285 46.0243 12.4395 46.2093 12.6402C46.3942 12.8409 46.5295 13.0821 46.6042 13.3446L54.2847 38.9915C54.3855 39.3275 54.3878 39.6853 54.2914 40.0226C54.195 40.3599 54.004 40.6625 53.741 40.8946C50.2519 43.9305 45.4488 46.2868 39.898 47.6462C39.5005 47.7491 39.0795 47.7105 38.7074 47.5368C38.3353 47.3632 38.0353 47.0654 37.8589 46.6946L35.1175 41.2571C33.0909 41.5421 31.0469 41.6859 29.0003 41.6876C26.9538 41.6859 24.9098 41.5421 22.8832 41.2571Z" fill="currentColor" fill-opacity="2"/>
  <path fill-rule="evenodd" clip-rule="evenodd" d="M24.4688 32.625C24.4688 34.1265 23.2515 35.3438 21.75 35.3438C20.2485 35.3438 19.0312 34.1265 19.0312 32.625C19.0312 31.1235 20.2485 29.9062 21.75 29.9062C23.2515 29.9062 24.4688 31.1235 24.4688 32.625ZM38.9688 32.625C38.9688 34.1265 37.7515 35.3438 36.25 35.3438C34.7485 35.3438 33.5312 34.1265 33.5312 32.625C33.5312 31.1235 34.7485 29.9062 36.25 29.9062C37.7515 29.9062 38.9688 31.1235 38.9688 32.625Z" fill="currentColor" fill-opacity="1"/>
  <path d="M16.8566 18.1251C20.7858 16.8936 24.8828 16.2821 29.0003 16.3126C33.1178 16.2821 37.2149 16.8936 41.1441 18.1251M41.1441 39.8751C37.2149 41.1065 33.1178 41.718 29.0003 41.6876C24.8828 41.718 20.7858 41.1065 16.8566 39.8751M35.1175 41.2571L37.8589 46.6946C38.0353 47.0654 38.3353 47.3632 38.7074 47.5368C39.0795 47.7105 39.5005 47.7491 39.898 47.6462C45.4488 46.2868 50.2519 43.9305 53.741 40.8946C54.004 40.6625 54.195 40.3599 54.2914 40.0226C54.3878 39.6853 54.3855 39.3275 54.2847 38.9915L46.6042 13.3446C46.5295 13.0821 46.3942 12.8409 46.2093 12.6402C46.0243 12.4395 45.7949 12.285 45.5394 12.1891C43.3695 11.2989 41.1254 10.6014 38.8332 10.1047C38.3926 10.0083 37.932 10.0774 37.5392 10.2988C37.1464 10.5203 36.8489 10.8787 36.7035 11.3055L34.9136 16.7204M22.8832 41.2571L20.1418 46.6946C19.9654 47.0654 19.6653 47.3632 19.2932 47.5368C18.9211 47.7105 18.5002 47.7491 18.1027 47.6462C12.5519 46.2868 7.74878 43.9305 4.25972 40.8946C3.99667 40.6625 3.80565 40.3599 3.70928 40.0226C3.61291 39.6853 3.61523 39.3275 3.71597 38.9915L11.3964 13.3446C11.4712 13.0821 11.6065 12.8409 11.7914 12.6402C11.9763 12.4395 12.2058 12.285 12.4613 12.1891C14.6312 11.2989 16.8753 10.6014 19.1675 10.1047C19.608 10.0083 20.0686 10.0774 20.4615 10.2988C20.8543 10.5203 21.1518 10.8787 21.2972 11.3055L23.0871 16.7204" stroke="currentColor" stroke-opacity="1" stroke-width="2" stroke-linecap="round" stroke-linejoin="round"/>
</svg>
