<svg width="58" height="58" viewBox="0 0 58 58" fill="none" xmlns="http://www.w3.org/2000/svg">
<path fill-rule="evenodd" clip-rule="evenodd" d="M32.2689 8.56698C31.7876 9.0533 31.3688 9.8479 31.029 10.8701C30.6946 11.8765 30.4652 13.0149 30.31 14.1029C30.1553 15.187 30.0776 16.1968 30.0386 16.9369C30.0358 16.9908 30.0332 17.0432 30.0307 17.094C30.0816 17.0916 30.134 17.089 30.1879 17.0861C30.928 17.0472 31.9378 16.9694 33.0218 16.8148C34.1098 16.6595 35.2483 16.4302 36.2546 16.0957C37.2769 15.756 38.0715 15.3372 38.5578 14.8559C39.3907 14.0221 39.8587 12.8917 39.8587 11.713C39.8587 10.5336 39.3901 9.40255 38.5562 8.56859C37.7222 7.73463 36.5911 7.26611 35.4117 7.26611C34.2331 7.26611 33.1027 7.73402 32.2689 8.56698ZM39.2633 15.5646L39.9704 16.2717C41.1794 15.0627 41.8587 13.4229 41.8587 11.713C41.8587 10.0032 41.1794 8.36341 39.9704 7.15438C38.7614 5.94534 37.1216 5.26611 35.4117 5.26611C33.7019 5.26611 32.0621 5.94534 30.853 7.15437L30.8499 7.1575C30.0518 7.96272 29.5111 9.09614 29.1311 10.2394C29.0855 10.3765 29.0418 10.5151 28.9999 10.6549C28.958 10.5151 28.9143 10.3765 28.8688 10.2394C28.4888 9.09614 27.9481 7.96272 27.1499 7.15749L27.1468 7.15438C25.9378 5.94534 24.298 5.26611 22.5882 5.26611C20.8783 5.26611 19.2385 5.94534 18.0295 7.15438C16.8205 8.36341 16.1412 10.0032 16.1412 11.713C16.1412 13.4229 16.8205 15.0627 18.0295 16.2717L18.7366 15.5646L18.0326 16.2748C18.3589 16.5983 18.7391 16.8794 19.152 17.1248H9.0625C7.5092 17.1248 6.25 18.384 6.25 19.9373V27.1873C6.25 28.7406 7.5092 29.9998 9.0625 29.9998H9.875V45.3123C9.875 46.0582 10.1713 46.7735 10.6988 47.301C11.2262 47.8284 11.9416 48.1248 12.6875 48.1248H29H45.3125C46.0584 48.1248 46.7738 47.8284 47.3012 47.301C47.8287 46.7735 48.125 46.0582 48.125 45.3123V29.9998H48.9375C50.4908 29.9998 51.75 28.7406 51.75 27.1873V19.9373C51.75 18.384 50.4908 17.1248 48.9375 17.1248H38.8479C39.2608 16.8794 39.641 16.5983 39.9673 16.2748L39.2633 15.5646ZM9.0625 19.1248C8.61377 19.1248 8.25 19.4885 8.25 19.9373V27.1873C8.25 27.636 8.61377 27.9998 9.0625 27.9998H10.875H28V19.1248H9.0625ZM30 19.1248V27.9998H47.125H48.9375C49.3862 27.9998 49.75 27.636 49.75 27.1873V19.9373C49.75 19.4885 49.3862 19.1248 48.9375 19.1248H30ZM28 29.9998H11.875V45.3123C11.875 45.5277 11.9606 45.7344 12.113 45.8868C12.2653 46.0392 12.472 46.1248 12.6875 46.1248H28V29.9998ZM30 46.1248V29.9998H46.125V45.3123C46.125 45.5277 46.0394 45.7344 45.887 45.8868C45.7347 46.0392 45.528 46.1248 45.3125 46.1248H30ZM21.7452 16.0957C20.723 15.756 19.9284 15.3372 19.4421 14.8559C18.6091 14.0221 18.1412 12.8917 18.1412 11.713C18.1412 10.5336 18.6097 9.40255 19.4437 8.56859C20.2777 7.73463 21.4088 7.26611 22.5882 7.26611C23.7668 7.26611 24.8972 7.73403 25.731 8.567C26.2123 9.05333 26.6311 9.84791 26.9708 10.8701C27.3053 11.8765 27.5346 13.0149 27.6899 14.1029C27.8445 15.187 27.9223 16.1968 27.9613 16.9369C27.9641 16.9908 27.9667 17.0432 27.9691 17.094C27.9183 17.0916 27.8659 17.089 27.812 17.0861C27.0719 17.0472 26.0621 16.9694 24.978 16.8148C23.89 16.6595 22.7516 16.4302 21.7452 16.0957Z" fill="#8C57FF"/>
<path opacity="0.2" d="M47.125 29V45.3125C47.125 45.7932 46.934 46.2542 46.5941 46.5941C46.2542 46.934 45.7932 47.125 45.3125 47.125H12.6875C12.2068 47.125 11.7458 46.934 11.4059 46.5941C11.066 46.2542 10.875 45.7932 10.875 45.3125V29H47.125Z" fill="#8C57FF"/>
</svg>
