<svg xmlns="http://www.w3.org/2000/svg" width="58" height="58" viewBox="0 0 58 58" fill="none">
  <path opacity="0.2" d="M17.8307 37.8359C15.6729 36.1581 13.9252 34.0112 12.7201 31.5579C11.5151 29.1045 10.8841 26.4091 10.8752 23.6757C10.8299 13.8429 18.7369 5.66403 28.5697 5.43747C32.3752 5.34725 36.1125 6.45746 39.2516 8.61062C42.3907 10.7638 44.7722 13.8506 46.0583 17.4333C47.3445 21.016 47.47 24.9127 46.4171 28.5707C45.3642 32.2288 43.1864 35.4625 40.1924 37.8132C39.531 38.3245 38.9953 38.9802 38.6262 39.7302C38.257 40.4802 38.0643 41.3047 38.0627 42.1406V43.5C38.0627 43.9807 37.8717 44.4417 37.5318 44.7816C37.1919 45.1215 36.7309 45.3125 36.2502 45.3125H21.7502C21.2695 45.3125 20.8085 45.1215 20.4686 44.7816C20.1287 44.4417 19.9377 43.9807 19.9377 43.5V42.1406C19.932 41.3109 19.7397 40.4932 19.3749 39.748C19.0102 39.0028 18.4824 38.3493 17.8307 37.8359Z" fill="currentColor" fill-opacity="0.7"/>
  <path fill-rule="evenodd" clip-rule="evenodd" d="M38.686 9.43527C35.7201 7.4009 32.189 6.35195 28.5934 6.43719L28.5928 6.4372C28.3517 6.44275 28.1119 6.45338 27.8733 6.46896L28.5467 4.43773C32.5619 4.34269 36.5052 5.51414 39.8172 7.78597C43.1295 10.0579 45.6424 13.3151 46.9995 17.0954C48.3566 20.8758 48.4891 24.9875 47.3781 28.8473C46.2671 32.7072 43.9691 36.1193 40.8099 38.5998L40.804 38.6045L40.8039 38.6044C40.2632 39.0224 39.8252 39.5585 39.5234 40.1717C39.2217 40.7847 39.0642 41.4585 39.0627 42.1416V42.1425V43.5C39.0627 44.2459 38.7664 44.9613 38.2389 45.4887C37.7115 46.0162 36.9961 46.3125 36.2502 46.3125H21.7502C21.0043 46.3125 20.2889 46.0162 19.7615 45.4887C19.234 44.9613 18.9377 44.2459 18.9377 43.5V42.1441C18.9326 41.4657 18.775 40.7971 18.4768 40.1877C18.1784 39.5781 17.7468 39.0434 17.214 38.6231L17.8868 36.5936C18.0693 36.7483 18.2552 36.8993 18.4445 37.0465L17.8306 37.836L18.4495 37.0504C19.2191 37.6567 19.8424 38.4284 20.2731 39.3084C20.7038 40.1884 20.931 41.154 20.9377 42.1338L20.9377 42.1406L20.9377 43.5C20.9377 43.7155 21.0233 43.9221 21.1757 44.0745C21.328 44.2269 21.5347 44.3125 21.7502 44.3125H36.2502C36.4657 44.3125 36.6723 44.2269 36.8247 44.0745C36.9771 43.9221 37.0627 43.7155 37.0627 43.5V42.1406V42.1387C37.0646 41.1503 37.2925 40.1754 37.7289 39.2886C38.1648 38.4029 38.7972 37.6285 39.5778 37.0244C42.4051 34.8035 44.4617 31.7492 45.4561 28.2941C46.4509 24.8379 46.3323 21.1562 45.1171 17.7712C43.9019 14.3862 41.6518 11.4696 38.686 9.43527ZM17.8868 36.5936L17.8868 36.5936L27.8733 6.46896L27.8727 6.469L28.546 4.43775C18.1653 4.67729 9.82775 13.3058 9.8752 23.6797C9.88475 26.5645 10.5507 29.4094 11.8226 31.9987C13.094 34.5872 14.9377 36.8525 17.214 38.6231L17.8868 36.5936ZM17.8868 36.5936C16.1043 35.0827 14.6502 33.2189 13.6177 31.117C12.4795 28.7998 11.8836 26.254 11.8752 23.6725L11.8752 23.6711C11.8335 14.6214 18.9249 7.05389 27.8727 6.469L17.8868 36.5936ZM18.9379 52.5625C18.9379 52.0102 19.3856 51.5625 19.9379 51.5625H38.0629C38.6151 51.5625 39.0629 52.0102 39.0629 52.5625C39.0629 53.1148 38.6151 53.5625 38.0629 53.5625H19.9379C19.3856 53.5625 18.9379 53.1148 18.9379 52.5625ZM31.0026 11.8828C30.4581 11.7905 29.9419 12.1571 29.8496 12.7016C29.7573 13.2461 30.1239 13.7624 30.6684 13.8547C32.6795 14.1956 34.5353 15.1524 35.9795 16.5929C37.4237 18.0334 38.3852 19.8867 38.7313 21.897C38.825 22.4413 39.3421 22.8066 39.8864 22.7129C40.4307 22.6192 40.796 22.102 40.7023 21.5577C40.286 19.1394 39.1293 16.9098 37.3919 15.1769C35.6545 13.4439 33.422 12.293 31.0026 11.8828Z" fill="currentColor" fill-opacity="0.7"/>
</svg>
